<svg width="500" height="127" viewBox="0 0 500 127" fill="none" xmlns="http://www.w3.org/2000/svg">
  <g transform="translate(10, 13.5)">
    <rect width="100" height="100" rx="7" fill="#4E21E7"/>
    <g transform="translate(0, 0) scale(1.389)" fill="#F2EFFB" clip-path="url(#sp)">
      <path d="m37.74 45.437-8.319 8.319a1.271 1.271 0 1 0 1.798 1.797l8.318-8.318a1.271 1.271 0 1 0-1.797-1.798ZM17.955 42.29l8.319-8.318a1.271 1.271 0 1 0-1.798-1.798l-8.318 8.318a1.271 1.271 0 0 0 1.797 1.798Zm15.926-19.521a10.64 10.64 0 0 0-.835 14.117L22.8 47.133a1.271 1.271 0 0 0 1.797 1.798l10.248-10.247c4.63 3.613 11.315 2.794 14.93-1.836 3.613-4.629 2.793-11.315-1.836-14.929a10.631 10.631 0 0 0-14.057.85Zm13.215 13.215a8.042 8.042 0 1 1 .011-11.361 8.049 8.049 0 0 1 0 11.372"/>
    </g>
    <defs>
      <clipPath id="sp">
        <path fill="#fff" d="M15.26 41.391 41.39 15.26l15.062 15.06L30.32 56.453z"/>
      </clipPath>
    </defs>
  </g>
  <text x="125" y="85" font-family="Arial, Helvetica, sans-serif" font-size="72" font-weight="600" fill="#4E21E7">SEOPress</text>
</svg>
