<?xml version="1.0"?><svg version="1.2" baseProfile="tiny-ps" viewBox="0 0 258 258" xmlns="http://www.w3.org/2000/svg" xmlns:xlink="http://www.w3.org/1999/xlink"><title>easyG</title><g><g fill="#feffff" transform="matrix(.1 0 0 -.1 0 258)"><path d="M0 1290V0h2580v2580H0V1290z"/></g><g fill="#d9e7fe" transform="matrix(.1 0 0 -.1 0 258)"><path d="m1138 2495-87-14-111-37-110-36-88-51c-303-173-514-448-592-768l-20-84-12-122-12-123 12-122 11-123 20-75c63-247 194-458 388-625 231-198 495-294 813-295h115l95 15c301 46 547 184 727 408l58 73 43 82c80 153 118 298 129 494l6 107-17 45-17 45-39 35-39 35-38 10-38 11h-880l-41-19-41-18-21-28c-12-15-27-45-33-65l-12-38 7-35c4-19 17-50 29-68l22-34 45-22 44-23h664l12-15 13-15-6-49c-3-27-19-83-35-124l-29-76-46-64-46-64-68-55c-37-31-102-74-143-96l-75-41-90-27-90-27-155-1-155-1-60 17c-145 40-242 90-357 183l-62 50-58 73-58 74-40 81-39 82-21 85-20 85-6 95-6 95 11 92c34 277 174 495 411 641l80 50 98 33 97 33 170 1h170l78-23c97-28 174-66 256-127l63-48 48-5c27-2 60-2 74 2 32 8 93 61 112 97l14 28v93l-17 35-16 35-56 44c-110 87-304 173-473 210l-73 16-150 4-150 3-87-14z"/></g><g fill="#a8c7fb" transform="matrix(.1 0 0 -.1 0 258)"><path d="M1245 2499c-222-16-406-78-584-196l-86-57-101-101-100-100-58-88-58-87-39-90-40-89-24-96-25-96-9-117-9-117 8-110 8-111 20-85c23-97 57-190 97-269 76-150 222-321 369-432l78-59 112-54 111-55 95-24c229-60 452-60 690 0l95 24 110 55 110 54 66 50c36 27 100 86 143 131l78 82 49 76 49 77 31 80c17 44 39 112 50 152l18 73 12 128 11 128-11 40c-6 23-21 56-34 75l-23 34-44 25-45 25-437 3-437 3-40-11-40-11-31-25c-17-15-37-39-45-55l-15-28v-98l23-34c12-18 38-44 56-56l34-23h658l19-10c11-6 24-19 30-29l10-19-20-77-19-76-38-72-37-72-77-76-76-77-79-46-79-47-77-24c-42-13-106-29-143-36l-68-12-131 5-131 6-85 27c-151 48-272 126-387 249l-62 65-36 62c-49 85-80 160-101 254l-19 80 1 160 1 160 21 80 22 80 44 90 45 90 52 63 51 64 82 64 81 64 80 40 80 40 85 21 85 22h280l80-22c101-27 195-71 263-122 95-72 145-83 219-50l42 19 24 39c14 21 28 52 32 70l6 31-11 41-11 40-26 31c-55 66-220 160-371 210-157 52-324 72-497 59z"/></g><g fill="#6ba0f8" transform="matrix(.1 0 0 -.1 0 258)"><path d="M1145 2485c-318-51-599-224-796-488l-58-78-46-90c-52-105-88-217-110-343l-15-89v-262l15-92c8-50 27-129 41-175l26-83 50-98 51-98 67-88c86-112 179-196 308-282l104-68 101-40c56-21 138-47 182-58l80-18 220 1h220l95 26c52 15 133 43 180 63l85 36 80 54c107 71 202 159 274 256l60 79 40 82c72 147 111 322 111 498v89l-11 28c-14 38-56 81-101 104l-37 19h-913l-35-17-35-16-24-36-24-37-6-44-5-45 23-45 23-45 40-22 40-23h665l21-21 21-21-7-44c-14-93-70-220-134-302-34-44-154-141-223-180-29-17-94-44-143-61l-90-30-103-11-102-12-97 11-97 12-90 30-90 30-60 36c-97 58-174 123-238 198l-60 70-49 100-48 100-17 70c-8 39-20 108-25 155l-9 85 10 101c16 158 52 273 121 392l34 57 95 96 95 96 80 47 80 46 95 32 95 32 170 1h170l65-18c90-25 173-65 271-132l83-57 58 4 58 4 28 21c15 11 37 35 50 53l22 33v96l-17 36-17 36-61 45c-67 51-228 132-320 163-33 10-96 27-140 36l-80 17-140 4-140 3-90-14z"/></g><g fill="#4286f5" transform="matrix(.1 0 0 -.1 0 258)"><path d="M1230 2489c-124-9-222-32-347-80l-101-40-107-71-108-70-87-87-86-86-53-75c-68-97-125-210-161-321l-29-88-17-113-17-113 7-140 6-140 19-85c52-230 144-400 305-568l81-84 82-62 82-62 95-47 95-47 84-24c47-14 113-30 148-37l64-13h340l105 23 105 22 90 36c157 62 272 141 401 275 81 84 117 135 166 233 72 142 118 342 118 509v80l-21 44-22 44-45 29-46 29h-943l-34-23-34-22-17-35-18-35v-38c0-21 6-53 14-71l14-33 38-29 37-29 331-3c182-1 341-4 354-7l23-6 9-24 9-24-19-75-19-74-35-70-35-70-57-62c-105-113-249-198-409-242l-80-21h-310l-88 27c-153 46-256 106-371 215-123 119-193 237-238 403l-22 83v340l22 80c86 311 318 542 631 627l76 21 145 1h145l83-22 84-23 66-33c37-19 92-52 122-75l55-42 37-11 36-11 36 7 36 7 37 32 36 32 13 32c8 18 14 46 14 64v31l-17 35-16 35-55 43c-29 23-93 63-141 89l-88 46-105 34-104 34-80 11c-121 16-210 19-314 10z"/></g></g></svg>